<?xml version="1.0" encoding="UTF-8" standalone="no"?>
<svg
   xmlns:dc="http://purl.org/dc/elements/1.1/"
   xmlns:cc="http://creativecommons.org/ns#"
   xmlns:rdf="http://www.w3.org/1999/02/22-rdf-syntax-ns#"
   xmlns:svg="http://www.w3.org/2000/svg"
   xmlns="http://www.w3.org/2000/svg"
   xmlns:sodipodi="http://sodipodi.sourceforge.net/DTD/sodipodi-0.dtd"
   xmlns:inkscape="http://www.inkscape.org/namespaces/inkscape"
   height="94px"
   style="shape-rendering:geometricPrecision; text-rendering:geometricPrecision; image-rendering:optimizeQuality; fill-rule:evenodd; clip-rule:evenodd"
   version="1.0"
   viewBox="0 0 18603 13661"
   width="128px"
   xml:space="preserve"
   id="svg11"
   sodipodi:docname="email.svg"
   inkscape:version="0.92.2 2405546, 2018-03-11"><metadata
     id="metadata15"><rdf:RDF><cc:Work
         rdf:about=""><dc:format>image/svg+xml</dc:format><dc:type
           rdf:resource="http://purl.org/dc/dcmitype/StillImage" /></cc:Work></rdf:RDF></metadata><sodipodi:namedview
     pagecolor="#ffffff"
     bordercolor="#666666"
     borderopacity="1"
     objecttolerance="10"
     gridtolerance="10"
     guidetolerance="10"
     inkscape:pageopacity="0"
     inkscape:pageshadow="2"
     inkscape:window-width="1920"
     inkscape:window-height="1050"
     id="namedview13"
     showgrid="false"
     inkscape:zoom="2.40625"
     inkscape:cx="15.376623"
     inkscape:cy="47"
     inkscape:window-x="1600"
     inkscape:window-y="0"
     inkscape:window-maximized="1"
     inkscape:current-layer="svg11" /><defs
     id="defs4"><style
       type="text/css"
       id="style2">
   <![CDATA[
    .fil0 {fill:#E6C131}
   ]]>
  </style></defs><g
     id="Layer_x0020_1"
     style="fill:#80cc28;fill-opacity:1"><path
       class="fil0"
       d="M18603 2164l0 9826c0,919 -752,1671 -1672,1671l-15260 0c-919,0 -1671,-752 -1671,-1671l0 -9826 9301 5160 9302 -5160zm-7290 8685l2805 0 0 726 -2805 0 0 -726zm0 -1781l5001 0 0 726 -5001 0 0 -726z"
       id="path6"
       style="fill:#80cc28;fill-opacity:1" /><path
       class="fil0"
       d="M1671 0l15260 0c743,0 1377,491 1593,1165l-9223 5116 -9222 -5116c216,-674 849,-1165 1592,-1165z"
       id="path8"
       style="fill:#80cc28;fill-opacity:1" /></g></svg>